<svg version="1.1" xmlns="http://www.w3.org/2000/svg" viewBox="0 0 276.02190463287013 218.476293165669" width="828.0657138986104" height="655.4288794970071">
  <!-- svg-source:excalidraw -->
  
  <defs>
    <style class="style-fonts">
      @font-face {
        font-family: "Virgil";
        src: url("https://excalidraw.com/Virgil.woff2");
      }
      @font-face {
        font-family: "Cascadia";
        src: url("https://excalidraw.com/Cascadia.woff2");
      }
    </style>
  </defs>
  <g stroke-linecap="round" transform="translate(106.02045692442448 48.474845457223125) rotate(89.99999999999994 32.594135079279454 127.40731262916626)"><path d="M0 0 C0 0, 0 0, 0 0 M0 0 C0 0, 0 0, 0 0 M-0.65 6.98 C1.87 3.44, 3.29 1.48, 4.85 0.32 M-0.57 6.17 C1.6 4.3, 3.36 1.65, 4.98 0.57 M0.22 13.38 C5.36 7.65, 7.53 3.81, 10.72 -0.05 M0.07 11.39 C4.16 7.93, 8.56 2.97, 9.99 -0.59 M0.38 19.71 C4.56 11.89, 11 6.73, 16.79 0.62 M-0.89 18.08 C5.1 12.48, 9.59 6.83, 16.47 -0.01 M-1.7 24.27 C6.28 20.19, 8.68 11.32, 19.37 1.72 M0.14 24.44 C8.85 15.35, 15.37 7.74, 21.12 0.16 M1.63 30.73 C5.76 25.74, 9.85 18.9, 26.89 2.21 M-0.33 30.26 C9.49 18.08, 19.83 7.79, 25.78 0.53 M-0.59 35.61 C10.64 28.17, 16.34 15.63, 33.23 0.09 M0.09 36.34 C6.66 28.31, 13.52 19.67, 32.34 -0.39 M0.5 40.54 C11.23 28.5, 27.38 12.64, 36.85 0.15 M0.55 42.8 C11.39 28.91, 23.41 14.36, 36.08 -0.08 M0.03 48.12 C7.11 38.16, 18.33 27.59, 42.44 1.48 M-0.23 49.47 C15.61 29.57, 32.38 10.95, 41.79 0.14 M0.35 54.29 C19.3 34.64, 36.02 11.79, 48.03 1.15 M-0.55 54.87 C16.27 36.27, 32.62 16.93, 47.31 -0.69 M-1.87 59.98 C14.19 46.05, 27.55 29.87, 54.59 -2.16 M-0.14 60.35 C11.36 47.48, 22.27 33.69, 53.58 -0.99 M1.36 67.46 C21.1 39.59, 43.77 13.71, 57.21 -0.55 M-0.81 67.1 C17.17 47.29, 36 26.62, 58.22 -0.43 M-0.26 72.21 C13.22 57.19, 28.72 44.2, 62.68 -1.28 M0.46 72.48 C14.95 55.4, 31.42 39.28, 63.58 0.21 M-0.9 78.82 C25.77 49.21, 50.73 19.43, 67.32 2.38 M0.32 78.58 C23.56 51.16, 47.69 23.62, 67.01 0.79 M-1.66 85.36 C18.85 62.84, 40.08 39.26, 65.95 7.52 M0.47 85.05 C23.4 56.21, 48.26 28.46, 66.23 8.71 M0.6 90.99 C25.88 63.23, 46.81 38.64, 66.16 12.39 M-0.78 91.38 C20.67 67.8, 41.48 42.13, 68.1 14.32 M-1.8 96.34 C17.01 75.05, 37.46 57.75, 68.22 20.37 M-1.09 97.76 C16.85 77.97, 34.06 58.08, 66.91 19.41 M-0.98 103.37 C23.48 78.02, 44.49 54.92, 65.34 24.59 M0.72 103.55 C18.06 83.48, 34.93 63.85, 67.11 26.38 M0.97 111.31 C19.69 89, 36.93 67.7, 66.09 31.73 M-0.46 109.74 C26.12 80.47, 53.12 50.58, 68.13 32.66 M0.91 116.94 C16.33 97.11, 30.9 81.75, 68.74 37.98 M-0.6 115.83 C24.42 89.42, 48.24 61.59, 67.22 39.2 M1.8 122.29 C18.77 100.35, 37.37 80.99, 66.32 45.37 M0.95 122.1 C23.59 94.34, 48.34 66.62, 66.87 43.32 M1.65 126.98 C13.72 111.69, 32.77 93.41, 65.67 49.4 M-1.02 128.46 C15.75 109.97, 32.15 91.43, 66.4 50.99 M-0.08 132.1 C21.73 110.46, 42.9 83.77, 68.45 55.4 M-0.84 134.94 C24.4 105.78, 48.59 77.54, 67.28 57.7 M-0.03 140.09 C14.33 123.42, 30.46 105.74, 65.54 62.46 M-1.06 140.12 C14.39 123.74, 29.41 107.32, 68.08 62.92 M1.99 147.11 C24.11 119.52, 45.35 91.57, 67.43 67.23 M0.96 146.05 C26.49 116.15, 51.79 87.73, 67.23 68.57 M-1.88 150.68 C22.59 123.24, 47.28 95.79, 69.22 76.36 M0.57 152.48 C17.95 132.12, 33.63 113.61, 68.47 73.9 M1.46 158.02 C28.46 129.43, 53.19 98.22, 65.69 82.08 M-0.72 159.72 C23.67 132.5, 46.42 106.95, 66.4 81.71 M0.42 165.97 C14.79 147.27, 32.78 128.73, 68.33 86.61 M-0.42 165.15 C26.81 134.68, 52.54 104.79, 67.9 87.29 M1.18 172.84 C20 145.39, 40.08 124.67, 67.73 93.99 M-0.21 171.66 C24.28 143.09, 45.55 116.49, 66.93 92.84 M0.63 174.76 C27.49 148, 54.5 115.38, 67.93 98.01 M-0.53 176.51 C25.19 148.1, 49.37 120.1, 67.44 99.92 M1.49 181.37 C19.34 157.73, 39.3 136.79, 67.49 106.55 M0.98 183.6 C18.43 161.61, 36.37 140.86, 66.73 104.39 M1.29 188.14 C27.57 160.61, 54.12 130.84, 66.52 113.21 M-1.13 188.36 C23.53 161.09, 47.84 133.77, 67 110.59 M-1.22 196.25 C26.02 164.14, 49.63 135.65, 67.71 117.68 M0.77 194.21 C25.03 165.47, 52.49 135.01, 66.82 118.29 M0.35 200.51 C21.38 178.93, 38.16 154.73, 66.7 121.64 M0.17 200.98 C16.02 183.26, 31.84 163.91, 67.9 123.08 M0.93 205.68 C19.85 182.41, 41.86 160.72, 66.52 128.6 M-0.13 207.88 C21.29 182.98, 41.19 159.66, 67.99 130.9 M-0.78 214.11 C16.68 194.37, 34.71 175.18, 66.53 136.31 M-0.46 213.64 C22.53 187.64, 46.53 161.58, 68.26 134.88 M-1.43 218.15 C15.24 202.15, 32.31 180.68, 65.54 140.35 M-0.89 219.49 C16.11 202.4, 30.38 182.86, 66.84 141.58 M1.42 223.98 C19.3 205.93, 35.26 183.89, 66.81 146.54 M-0.38 225.56 C17.7 204.1, 35.25 184.72, 66.3 147.94 M-0.27 231.49 C22.24 207.03, 45.19 178.25, 68.45 154.78 M0.07 231.36 C20.66 205.77, 43.12 181.83, 68.41 153.65 M-0.1 238.7 C15.04 219.83, 33.56 198.61, 65.79 158.95 M0.82 236.68 C20.27 214.29, 38.28 191.31, 67.03 159.68 M1.93 245.32 C16.95 222.89, 36.85 204.44, 68.39 167.29 M-0.85 243.8 C20.8 218.92, 41.82 195.25, 67.5 165.14 M0.38 249.19 C23.08 221.6, 49.15 193.26, 67.15 173.99 M0.67 250.42 C25.11 222.37, 50.67 192.59, 68.23 171.52 M-0.57 253.34 C20.99 230.85, 45.57 203.36, 67.28 179.61 M0.82 255.33 C22.62 230.23, 44.56 205.16, 68.06 179.57 M5.9 254.89 C21.09 236.75, 36.96 218.41, 66.69 182.92 M6.35 255.86 C26.54 232.06, 46.74 207.16, 67.14 183.8 M10.45 254.97 C24.72 241.8, 33.62 228.06, 66.44 192.78 M10.9 254.36 C26 239.59, 39.6 223.27, 67.77 190.89 M15.77 255.33 C32.78 238.01, 47.85 222.77, 67.65 196.54 M15.66 255.35 C30.36 239.77, 43.8 223.46, 67.79 196.62 M21.64 255.12 C39 238.34, 54.2 220.97, 66.67 203.65 M22.92 254.93 C37.4 237.4, 51.83 221.69, 68.14 202.07 M28.07 254.65 C36.06 244.75, 44.43 233, 68.02 210 M27.53 255 C41.71 240.09, 54.6 223.88, 66.31 208.53 M32.91 254.9 C45.32 242.73, 55.52 227.29, 66.84 213.87 M33.06 255.46 C46.06 238.04, 59.39 222.26, 67.11 215.99 M38.96 257.26 C49.05 241.13, 60.7 230.19, 67.24 219.73 M37.28 256.36 C48.64 241.96, 59.78 228.81, 67.6 221.55 M43.61 255.02 C53.8 242.54, 62.29 233.17, 67.29 226.67 M44.28 254.1 C49.24 248.05, 54.07 240.44, 68.4 226.31 M49.99 257.13 C54.43 249.27, 58.87 241.7, 66.17 231.99 M48 255.66 C54.22 248.15, 59.7 240.66, 67.36 233.66 M51.89 256.48 C58.54 250.09, 63.01 247.82, 65.12 239.59 M53.66 255.47 C56.92 250.92, 59.67 246.86, 66.86 240.12 M59.76 254.33 C61.47 251.53, 62.6 249.14, 66.4 244.42 M58.71 255.69 C61.31 251.47, 63.88 249.18, 67 245.71 M64.28 256.15 C64.24 254.55, 65.04 254.08, 67.63 252.29 M63.72 255.66 C64.86 254.54, 66.45 253.19, 67.2 251.67" stroke="#ffcc00" stroke-width="0.5" fill="none"></path><path d="M0.42 1.01 C25.64 -0.41, 52.92 1.35, 66.85 1.47 M-0.54 0.48 C17.88 -0.49, 34.17 -0.66, 65.5 -0.76 M63.93 0.67 C66.01 88.3, 64.93 173.94, 65.16 254.89 M64.98 0.49 C65.43 94.29, 65.63 189.39, 65.89 254.33 M65.06 253.88 C39.06 254.85, 16.3 252.25, -1.57 255.14 M64.5 255.81 C45.03 253.83, 24.45 255.38, -0.72 255.36 M0.57 253.85 C0.72 153.26, 1.89 53.65, 1.29 0.94 M-0.39 254.35 C-2.18 173.22, -1.72 90.78, 0.42 -0.73" stroke="#ffcc00" stroke-width="1" fill="none"></path></g><g stroke-linecap="round" transform="translate(105.11499739352143 -18.621895811783418) rotate(89.99999999999994 32.594135079279454 127.40731262916626)"><path d="M0 0 C0 0, 0 0, 0 0 M0 0 C0 0, 0 0, 0 0 M-0.14 6.42 C2.44 3.83, 3.06 1.58, 5.49 -0.06 M-0.4 6.11 C1.92 4.65, 2.9 2.35, 5.28 0.71 M1.57 12.87 C1.6 9.84, 5.4 6.54, 12.23 -0.24 M0.32 11.44 C3.81 7.68, 7.26 4.6, 10.64 0.71 M1.79 20.02 C1.11 14.73, 5.66 10.32, 14.12 -1.57 M0.11 18.27 C4.43 12.88, 8.03 8.26, 16.59 1.08 M0.46 22.47 C6.34 19.47, 10.56 11.91, 21.46 -0.66 M-0.02 24.55 C7.18 17.22, 12.85 8.95, 20.56 0.3 M-0.1 30.99 C11.17 19.66, 21.88 6.91, 25.08 1.05 M-0.33 29.59 C7.58 22.27, 13.18 15.36, 25.6 -0.11 M1.36 38.6 C10.27 24.48, 21.98 12.4, 30.03 -0.74 M0.02 37.87 C8.31 28.26, 14.97 19.5, 32.23 0.77 M1.06 43.4 C8.23 33.08, 14.97 23.94, 36.33 1.14 M-0.77 42 C10.69 30.3, 20.07 18.19, 37.39 0.31 M-2.11 47.21 C14.49 32, 30.43 12.15, 41.85 -0.32 M-0.94 49.77 C9.28 38.7, 19.55 27.51, 41.89 -0.92 M-0.47 54.68 C12.43 39.55, 22.82 27.53, 46.67 0.12 M-0.35 53.67 C17.01 34.4, 33.6 15.65, 47.31 -0.24 M-1.06 59.7 C19.15 35.99, 40.99 13.25, 51.98 -1.76 M0.42 61.79 C20.64 38.57, 39.5 14.58, 53.49 -0.19 M0.47 68.48 C15.45 47.62, 34.33 27, 56.44 -1.17 M-1.13 67.28 C12.41 53.09, 24.85 38.19, 57.42 0.45 M-0.4 74.19 C21.59 51.44, 40.18 28.03, 63.06 -2 M0.79 73.51 C22.32 48.41, 44.8 23.15, 64.72 -0.7 M-1.44 79.62 C15.71 60.7, 31.95 40.29, 66.25 3.09 M0.5 79.06 C15.6 62.77, 29.37 44.2, 67.21 0.87 M0.55 84.22 C25.85 52.85, 51.26 23.2, 66.06 7.78 M-0.41 85.3 C14 69.12, 28.32 52.26, 67.75 7.98 M-1.9 90.59 C18.96 67.98, 42.98 43.22, 67.69 13.68 M-0.1 91.25 C18.65 69.68, 36.51 50.59, 68.29 13.85 M-0.66 99.52 C17 76.28, 37.05 53.95, 66.66 21.01 M0.28 97.06 C23.78 67.85, 49.96 40.33, 67.63 19.23 M-0.41 104.62 C19.61 76.76, 40.59 55.04, 66.32 27.95 M0.81 103.14 C17.02 83.91, 35.24 63.99, 67.43 26.14 M1.07 110.99 C23.3 83.06, 51.48 53.23, 65.48 33.28 M-0.98 109.19 C17.59 89.54, 37.3 67.29, 66.48 32.96 M-0.9 114.32 C23.75 87.25, 47.96 59.13, 66.07 39 M0.69 115.79 C17.2 96.38, 35.09 74.73, 66.89 39.54 M-1.55 123.25 C16.15 104.95, 29.47 87.05, 67.38 45.42 M0.74 121.17 C15.83 102.55, 33.92 82.14, 66.86 44.65 M-0.41 126.53 C16.02 107.11, 34.34 86.2, 66.43 49.62 M0.06 128.81 C22.94 102.4, 46.06 76.64, 67.66 50.92 M-1.64 135.59 C15.11 117.1, 31.85 99.24, 68.16 56.46 M-0.29 134.47 C21.42 109.26, 42.82 82.28, 66.37 56.31 M1.59 139.25 C17.68 120.1, 38.87 97.03, 69.13 61.3 M-0.87 141.31 C19.25 116.29, 41.01 93.19, 68.12 63.19 M1.31 146.74 C17.41 125.68, 34.61 107.49, 69.13 68.58 M0.94 145.37 C25.54 116.01, 52.63 86.93, 66.31 69.45 M-0.83 154.18 C22 127.21, 41.32 104.3, 69.45 74.95 M-0.14 152.46 C24.47 124.22, 49.26 96.74, 67.38 74 M0.65 159.63 C14.78 141.01, 32.17 122.02, 69.21 79.66 M-0.5 159.67 C14.18 142.32, 29.3 125.19, 67.75 81.65 M-1.33 165.72 C26.44 135.23, 51.96 103.48, 67.59 87.68 M0.58 164.45 C20.89 140.45, 42.16 115.94, 66.6 86.58 M1.3 170.33 C15.85 151.29, 32.99 136.09, 67.52 92.29 M-0.86 171.69 C15.29 152.08, 32.84 133.65, 68.11 93.5 M1.96 177.67 C27.34 145, 50.11 115.12, 67.27 97.78 M-0.65 177.25 C21.12 153.36, 40.56 130.47, 67.63 98.65 M-0.23 184.66 C20.09 162.8, 37.03 140.59, 66.75 106.47 M0.38 182.8 C26.95 152.33, 54 120.67, 68.52 105.39 M-2.17 188.06 C17.39 171.41, 33.72 150.88, 67.81 113.22 M-0.73 189.36 C19.87 166.11, 38.99 143.51, 67.06 110.99 M-1.21 195.09 C23.53 167.34, 44.48 144.61, 68.5 116.41 M1.08 194.38 C20.56 172.2, 39.6 149.22, 67.21 118.22 M0.59 202.08 C25.44 171.96, 50.3 142.91, 66.74 124.68 M-0.85 200.81 C25.18 171.11, 49.96 141.11, 66.87 124.38 M-1.37 205.54 C15.86 189.23, 32.56 168.61, 67.91 131.48 M-0.14 206.62 C15.89 190.59, 30.33 173.63, 68.07 130.42 M-1.84 212.61 C19.53 191.96, 38.63 168.42, 67.16 134.25 M-0.45 213.67 C18.92 193.42, 36.91 171.07, 67.75 136.42 M0.49 220.12 C23.21 194.84, 46.83 165.45, 65.7 140.77 M-0.64 219.23 C21.65 193.92, 41.93 170.88, 66.74 142.48 M-1.34 225.23 C24.67 201.7, 46.86 172.42, 69.08 148.25 M-0.61 225.04 C16.92 206.37, 34.92 187.92, 66.47 148.22 M1.09 232.1 C22.81 206.16, 43.47 178.56, 66.81 154.02 M-1.05 232.42 C16.17 213.64, 31.47 194.64, 67.24 153.89 M1.79 238.95 C25.35 208.74, 49.61 183.42, 68.03 162.13 M-0.68 237.79 C24.62 210.37, 47.13 181.05, 66.45 161.41 M0.76 244.49 C23.93 216.35, 46.21 191.08, 67.74 166.44 M0.71 243.49 C20.41 219.49, 39.84 196.75, 67.32 165.94 M-1.85 250.98 C16.37 230.54, 34.24 212.79, 67.15 173.07 M-0.96 249.34 C15.03 233, 30.7 214.87, 67.89 172.68 M2.67 254.18 C14.78 237.55, 27.89 221.46, 67.91 179.43 M0.79 254.96 C19.26 232.23, 39.03 210.22, 67.78 178.44 M5.78 254.89 C30.39 227.07, 53.03 198.94, 67.78 184.92 M5.86 255.82 C22.79 235.27, 39.58 216.46, 68.37 184.72 M12.12 255.71 C34.07 228.67, 56.97 204.45, 68.25 189.53 M10.55 254.35 C26.99 235.37, 44.32 216.43, 67.1 190.74 M17.07 256.28 C28.39 239.24, 43.8 224.56, 68.83 196.97 M15.6 255.72 C30.72 239.55, 45.59 222.57, 68.17 197.03 M20.93 256.95 C37.8 240.91, 50.02 225.17, 67.32 201.03 M23.06 255.85 C34.87 241.22, 46.57 229.29, 67.53 202.22 M25.39 257.19 C40.83 239.02, 53.23 226.18, 66.12 208.71 M27.21 256.32 C36.31 245.32, 44.75 235.26, 67.63 208.62 M32.32 253.89 C44.7 243.4, 55.72 228.99, 67.85 214.86 M31.97 255.1 C41.05 245.48, 48.57 238.77, 67.67 215.28 M36.23 255.81 C46.16 245.57, 51.69 239.39, 67 220.8 M37.91 255.42 C45.28 248.1, 50.5 240.52, 67.8 221.04 M43.08 253.92 C53.04 245.58, 61.79 234.04, 68.16 225.42 M43.61 254.53 C49.88 248.42, 56.94 239.67, 67.88 226.11 M46.67 255.79 C55 251.99, 57.08 245.93, 66.41 231.6 M48.66 254.57 C52.34 250.17, 57.47 246.59, 66.46 232.88 M54.89 256.67 C58.03 251.39, 57.66 248.41, 65.49 241.28 M52.4 256.09 C58.99 249.05, 64.37 243.7, 67.53 239.45 M57.91 254.58 C61.84 251.57, 63.67 249.35, 66.2 245.91 M58.44 255.18 C61.53 251.61, 63.83 248.66, 67.02 245 M64.21 255.48 C65.22 254.15, 66.58 252.45, 67.07 251.47 M63.83 255.82 C64.75 254.45, 65.96 253.59, 67.35 251.8" stroke="#ff0000" stroke-width="0.5" fill="none"></path><path d="M0.33 0.22 C24.18 0.32, 44.29 2.51, 65.42 -1.85 M0.55 0.98 C18.01 0.84, 37.03 -0.13, 65.21 -0.11 M66.13 0.34 C68.55 96.06, 66.41 190.1, 64.3 255.1 M64.45 -0.25 C64.54 76.02, 63 153.91, 65.02 254.29 M67.11 255.41 C50.27 253.05, 36.2 253.57, 0.61 254.54 M64.29 255.38 C40.33 255.06, 15.14 255.5, 0.32 253.83 M-0.08 255.93 C0.57 185.02, 0.28 113.7, -0.47 0.58 M0.42 255.48 C1.3 195.97, 1.49 138.91, 0.6 0.08" stroke="#ff0000" stroke-width="1" fill="none"></path></g><g stroke-linecap="round" transform="translate(104.81317754988686 -84.81317754988669) rotate(89.99999999999994 32.594135079279454 127.40731262916626)"><path d="M0 0 C0 0, 0 0, 0 0 M0 0 C0 0, 0 0, 0 0 M0.02 7.06 C1.06 4.07, 4.2 1.63, 5.01 -0.2 M0.12 6.14 C1.51 4.6, 3.03 2.18, 4.99 0.41 M-1.44 11.75 C1.74 9.8, 4.59 7.38, 9.09 -0.7 M-0.53 12.2 C2.35 8.59, 4.4 6.68, 11.14 -0.29 M-1.3 17.83 C7.48 12.95, 12.8 5.87, 15.09 -1.24 M-1.1 18.7 C5.38 12.53, 10.48 5.36, 16.16 0.21 M2.18 24.59 C5.74 19.55, 7.58 14.11, 22.08 -1.28 M0.69 24.59 C6.52 15.37, 13.96 8.26, 21.62 0.14 M-1.28 30.55 C8.17 21.38, 17.1 12.3, 28.16 -0.22 M0.82 31.35 C9.04 19.36, 18.72 10.16, 26.19 0.67 M-1.38 37.85 C9.29 26.03, 23.25 13.52, 31.31 0.9 M-0.86 37.84 C8.69 27.12, 16.11 16.93, 32.46 -0.95 M0.04 42.88 C10.77 28.87, 20.79 18.73, 37.33 1.65 M-0.58 43.52 C12.25 27.78, 25.3 13.66, 36.02 -0.57 M0.62 50.84 C13.6 31.19, 26.02 17.23, 42.75 0.54 M-0.44 49.42 C11.9 35.59, 24.67 20.22, 42.86 -0.41 M-0.25 54.92 C16.91 31.63, 35.93 12.05, 47.22 1.45 M0.38 53.78 C14.4 37.9, 28.93 20.32, 48.34 -0.16 M-1.1 62.63 C21.08 38.04, 39.48 15.62, 52.33 -0.06 M0.58 60.81 C11.85 47.8, 24.42 32.2, 52.6 -0.25 M-0.13 66.97 C19.75 46.63, 38.71 21.32, 58.03 1.68 M-0.52 68.26 C12.7 53.68, 24.63 39.82, 57.53 1.03 M0.41 72.99 C20.01 47.86, 42.52 25.83, 65.5 0.81 M-0.76 72.5 C18.85 49.88, 38.79 27.46, 64.18 0.3 M-2.07 80.5 C18.58 58.05, 35.77 36.37, 68.2 -0.19 M-0.86 79.58 C20.81 55, 43.11 29.7, 68.41 1.42 M-0.34 83.11 C25.28 54.85, 50.63 26.06, 66.09 8.64 M0.27 84.78 C22.03 59.92, 44.43 33.8, 67.63 7.07 M-0.94 90.68 C18.01 68.21, 39.35 48.49, 69.17 14.28 M0.56 91.43 C14.08 73.29, 29.84 54.9, 66.93 12.75 M-1.96 96.39 C22.57 72, 43.95 49.91, 66.64 19.49 M-0.52 98.47 C15.69 77.83, 31.88 58.35, 66.8 19.89 M-1.4 103.37 C18.25 85.7, 36.16 62.09, 68.36 26.09 M0.31 103.51 C23.7 76.34, 47.45 48.39, 67.17 25.68 M-1.49 111.38 C16.43 92.86, 32.38 74.1, 68.58 33.63 M0.34 109.91 C13.74 93.22, 28.64 76.81, 67.65 32.08 M1.48 115.86 C16.31 97.73, 32.68 75.87, 65.52 38.01 M-0.33 116.31 C15.77 99.48, 29.08 82.5, 67.72 38.95 M1.59 122.36 C21.39 97.03, 38.36 74.16, 67.64 42.55 M0.11 121.47 C26.25 93.7, 49.5 63.96, 67.56 43.54 M1.5 129.63 C18 106.49, 35.95 84.04, 65.99 52.47 M0 127.84 C27.71 97.16, 54.25 66.91, 66.92 51.36 M0.06 132.27 C22.05 110.35, 45.74 83.94, 68.45 57.91 M0.4 134.58 C14.84 117.78, 29.41 101.27, 67.96 57.7 M0.02 139.34 C22.16 116.73, 41.88 91.96, 67.35 60.62 M-0.67 140.66 C25.1 110.65, 49.9 82.16, 67.46 62.72 M2.21 145.49 C14.44 127.86, 29.38 110.02, 67.17 68.57 M0.54 146.41 C15.81 128.43, 29.52 111.14, 66.99 68.5 M1.97 153.35 C26.45 124.69, 49.71 96.08, 66.72 75.04 M0.44 152.35 C21.21 127.64, 41.81 105.13, 67.77 74.62 M-0.71 160.61 C26.73 127.77, 53.48 100.31, 67.55 81.06 M-1.08 158.7 C19.77 138.23, 38.02 115.22, 67.54 80.94 M-1.48 162.7 C23.53 136.15, 45.44 111.03, 68.14 86.48 M-0.49 164.51 C12.29 148.1, 27.25 133.8, 67.36 87.2 M0.03 171.38 C16.16 151.18, 34.54 131.78, 67.58 92.62 M-0.36 170.68 C13.03 154.5, 27.98 138.96, 67.85 94.04 M-1.6 177.87 C24.24 147.71, 47.53 122.15, 69.18 100.89 M-0.6 175.54 C26.7 147.3, 51.64 118.49, 67.39 100.1 M-1.2 183.24 C20.43 155.97, 44.36 132.46, 66.77 103.91 M0.52 183.65 C16.29 165.21, 31.89 145.57, 66.9 105.58 M-0.77 189.53 C20.52 167.9, 37.66 146.91, 69 111.9 M-0.93 189.37 C13.33 173.34, 27.88 156.77, 66.78 111.03 M2.15 194.34 C28.57 162.66, 54.42 132.04, 65.59 119.79 M-0.23 193.92 C22.58 168.14, 46.18 140.74, 67.72 118.92 M-1.83 201.53 C25.69 171.59, 49.58 146.77, 66.98 121.85 M0.14 200.45 C25.04 172.37, 49.21 145.02, 66.85 122.7 M0.22 208.25 C24.92 180.85, 47.23 152.78, 68 130.3 M-0.68 207.58 C22.36 180.45, 45.41 154.99, 68.04 129.89 M-0.03 211.41 C17.11 192.89, 33.33 172.46, 66.06 134.48 M1 214.26 C25.05 182.95, 51.31 153.25, 66.62 135.61 M-1.96 218.74 C21.37 193.43, 40.51 171.86, 65.56 143.17 M0.17 219.28 C24.21 192.17, 46.34 165.86, 68.34 141.4 M-0.37 223.41 C21.16 198.66, 45.63 173.98, 68.09 147.76 M-0.61 226.33 C19.72 204.79, 37.84 182.95, 66.16 148.8 M-1.81 230.73 C20.66 211.07, 39.9 186.57, 68.07 152.82 M-1.02 231.15 C20.33 207.73, 40.91 184.04, 68.46 154.38 M1.65 237.19 C25.21 208.8, 48.44 180.47, 68.44 158.8 M-0.21 236.96 C24.43 210.71, 45.82 183.51, 67.25 160.84 M0.81 244.88 C23.57 217.27, 44.56 190.67, 66.87 165.1 M0.18 243.39 C22 218.08, 43.89 193.12, 66.97 166.53 M-0.5 248.6 C17.42 227.96, 37.72 206.86, 68.11 172.45 M0.74 249.97 C25.03 222.96, 48.26 193.55, 67.41 172.31 M-1.05 253.75 C17.53 235.78, 35.58 218.36, 66.22 178.05 M1.23 254.47 C22.8 232.29, 43.67 207.8, 66.51 179.08 M4.05 255.9 C19.42 240.1, 30.73 226.13, 68.26 186.2 M5.38 254.94 C29.58 229.03, 51.36 201.55, 66.54 184.85 M9.74 253.54 C24.49 239.79, 37.14 224.08, 65.9 190.9 M11.85 254.83 C28.56 234.99, 44.01 215.71, 66.38 191.8 M14.55 255.32 C27.28 240.62, 41.13 228.71, 65.67 195.01 M16.35 254.76 C33.57 236.6, 47.83 217.67, 68.24 195.86 M22.84 255.76 C36.44 236.78, 53.45 219.77, 69.3 204.58 M22.42 254.57 C37.62 235.47, 54.59 217.37, 66.66 203.5 M25.2 253.57 C36.48 244.98, 42.67 234.43, 67.99 208.01 M26.41 256.15 C42.39 237.42, 58.51 219.67, 67.21 209.3 M33.31 254.05 C41.28 247.25, 45.18 237.7, 66.01 214.67 M32.91 254.25 C42.13 243.14, 53.31 230.92, 66.79 215 M36.34 255.49 C49.49 244.97, 58.4 230.71, 68.41 221.53 M37.65 255.31 C45.4 245.12, 55.86 235.3, 67.79 220.61 M43.79 255.49 C50.17 248.32, 53.6 243.45, 67.2 228.24 M42.99 254.22 C50.62 246.6, 58.09 237.53, 66.93 227.92 M49.9 253.38 C53.75 250.82, 60.38 242.62, 65.72 231.57 M48.83 255.22 C55.99 247.97, 62.92 238.57, 68.12 233.32 M51.82 257.33 C58.14 250.53, 64.2 243.59, 68.92 240.5 M53.4 255.37 C58.43 248.82, 63.16 242.95, 67.3 239.39 M57.9 255.09 C60.92 253.37, 65.48 247.98, 67.13 246.37 M59.29 255.54 C61.34 252.28, 64.14 249.12, 66.96 245.79 M64.08 255.76 C64.33 254.28, 65.9 254.1, 67.12 251.89 M64.11 255.77 C64.98 254.4, 65.97 253.3, 67.13 251.7" stroke="#000000" stroke-width="0.5" fill="none"></path><path d="M0.19 -0.7 C15.23 2.6, 27.76 1.12, 66.21 -1.03 M-0.29 -0.56 C18.99 -0.93, 40.01 -0.17, 65.67 0.32 M64.72 1.23 C66.89 80.48, 66.57 159.4, 65.07 254.17 M64.84 -0.46 C63.91 61.43, 63.59 122.15, 65.35 254.4 M65.27 255.14 C46.69 256.36, 30.49 255.73, -1.38 256.34 M65.29 253.97 C44.27 253.51, 23.6 254.28, -0.03 255.81 M-1.31 256.13 C-1.59 166.74, -0.51 77.66, -1.48 1.43 M0.25 254.14 C-2.49 170.7, -2.63 85.95, -0.76 -0.54" stroke="#000000" stroke-width="1" fill="none"></path></g></svg>