<svg version="1.1" xmlns="http://www.w3.org/2000/svg" viewBox="0 0 276.2270816998524 229.4948759586701" width="828.6812450995573" height="688.4846278760103">
  <!-- svg-source:excalidraw -->
  
  <defs>
    <style class="style-fonts">
      @font-face {
        font-family: "Virgil";
        src: url("https://excalidraw.com/Virgil.woff2");
      }
      @font-face {
        font-family: "Cascadia";
        src: url("https://excalidraw.com/Cascadia.woff2");
      }
    </style>
  </defs>
  <g stroke-linecap="round" transform="translate(10 10.494875958670093) rotate(0 42.5 104.5)"><path d="M0 0 C0 0, 0 0, 0 0 M0 0 C0 0, 0 0, 0 0 M0.51 6.33 C0.26 4.29, 2.28 3.44, 5.26 0.29 M-0.06 6.2 C1.5 4.7, 2.5 3.24, 4.88 0.74 M0.42 10.52 C2.08 7.13, 6.79 4.35, 11.61 0.06 M-0.49 11.93 C3.63 7.97, 6.35 4.67, 10.33 0.45 M1.55 19.87 C2.82 15.05, 6.07 9.45, 15.73 -1 M-0.28 17.82 C5.43 12.53, 8.78 7.1, 15.54 0.71 M-0.12 24.48 C8.99 15.92, 13.15 8.45, 22.76 -2.01 M1.17 24.63 C4.84 19.53, 9.16 13.07, 22.11 0.26 M0 28.86 C6.28 22.23, 15.52 16.36, 27.27 0.58 M-0.5 29.75 C9.91 18.47, 20.46 8.25, 26.75 -0.06 M0.85 38.14 C10.61 24.52, 21.01 11.46, 30.04 0.4 M-0.07 35.93 C10.57 24.95, 20.58 14.94, 31.65 0.71 M-1.79 41.53 C7.92 31.56, 17.09 21.64, 37.45 0.8 M-0.13 41.75 C8.35 33.12, 15.34 24.68, 35.89 0.04 M-0.88 48.24 C11.73 35.39, 27.2 19.52, 43.1 -1.53 M-0.13 47.98 C15.62 29.67, 31.03 11.45, 41.56 0.07 M-1.18 55.8 C13.86 39.1, 31.31 20.61, 46.89 -0.91 M0.9 54.6 C16.82 34.34, 33.77 13.89, 47.3 -0.21 M-0.1 61.73 C16.63 46.01, 27.43 28.91, 52.74 0.92 M0.04 60.93 C17.26 41.24, 33.67 21.76, 52.33 -0.78 M1.25 67.89 C20.31 46.26, 39.12 25.3, 59.63 -1.53 M-0.22 66.58 C15.89 48.17, 32.26 30.09, 58.08 -0.34 M0.48 72.36 C19.6 50.84, 34.99 29.08, 63.25 -1.95 M0.93 73.88 C16.58 54.86, 32.06 36.93, 64.19 -0.22 M0.32 81.33 C25.44 46.14, 53.12 16.04, 67.14 1.49 M-0.56 80.38 C16.82 59.63, 32.25 40.99, 68.13 -0.12 M1.59 85.45 C27.72 52.01, 54.57 18.44, 76.3 1.69 M-0.2 85.68 C17.37 65.13, 35.44 44.22, 75.19 0.05 M-1.68 91.47 C27.33 63.75, 51.83 34.04, 80.33 -1.7 M0.63 91.72 C19.21 69.85, 38.12 47.6, 80.12 0.37 M-1.26 98.63 C32.64 60.55, 64.23 26.15, 83.04 1.27 M0.06 97.63 C25.64 66.99, 52.92 37.45, 85.14 -0.93 M-0.36 102.48 C33.05 62.98, 66.2 26.89, 87.61 0.84 M0.56 104.24 C29.09 68.96, 58.42 35.53, 87.54 3.04 M0.84 110.83 C21.11 84.98, 41.46 61.49, 88.18 8.8 M-0.17 110.49 C23.58 81.23, 49.85 51.63, 87.76 9.66 M2.1 116.07 C26.81 85.7, 56.61 54.21, 88.19 13.92 M0.18 116.34 C21.85 92.98, 40.89 69.13, 88.08 14.8 M-1.72 122.82 C27.94 87.96, 59.22 54.29, 86.95 18.8 M0.09 121.01 C29.81 87.73, 61.71 52.02, 87.67 20.25 M0.3 128.3 C29.51 95.12, 59.56 58.63, 87.19 25.3 M-0.4 127.86 C28.86 94.9, 59.08 60.4, 88.6 27.67 M1.54 134.17 C19.74 110.07, 42.65 86.99, 89.46 34.34 M-0.79 134.89 C21.93 109.84, 44.32 83.6, 88.67 33.01 M0.26 138.49 C15.14 121.14, 34.03 99.43, 86.57 37.84 M0.66 141.12 C27.46 108.92, 53.4 75.67, 88.24 38.96 M0.54 148 C23.26 120.48, 46.48 95.01, 88.56 43.07 M0.38 145.56 C29.05 113.58, 57.45 80.16, 87.69 45.86 M-0.55 153.81 C21.07 125.82, 44 97.46, 89.79 52.26 M-0.97 151.4 C26.48 121.78, 52.22 93.03, 88.91 51.93 M-0.02 159.75 C24.24 130.39, 53.34 100.49, 85.94 58.98 M-1.1 158.93 C22.4 131.35, 46.8 104.34, 86.79 58.17 M1.45 166.24 C35.13 126.05, 68.02 87.17, 88.4 64.05 M0.78 163.97 C26.09 134.87, 53.04 105.2, 87.98 62.83 M-2.05 170.19 C17.16 148.3, 34.66 127.09, 86.67 71.35 M0.8 170.34 C29.44 135.28, 59.58 99.73, 87.8 69.8 M-0.73 177.32 C26.14 143.75, 56.94 110.37, 89.36 76.27 M-0.19 176.79 C17.26 154.5, 35.82 135.78, 87.59 75.61 M-1.96 181.87 C22.54 156.9, 47.18 128.39, 87.28 81.28 M0.97 183.15 C18.45 163.15, 35.54 142.06, 88.33 81.56 M-1.3 190.89 C26.07 162.76, 48.76 132.44, 86.44 88.32 M-0.88 189.31 C31.8 153.26, 63.92 117.91, 88 88.71 M-0.09 196.18 C27.15 162.15, 54.77 129.92, 86.42 94.68 M-0.32 195.64 C22.21 168.72, 43.87 144, 88.45 94.24 M0.94 202.11 C33.84 160.74, 67.73 122.91, 86.81 100.88 M-0.54 201.43 C35.41 160.27, 71.51 119.91, 88.24 100.01 M-1.33 206.06 C32.15 170.14, 65.38 133.32, 88.16 107.02 M0.04 207.83 C26.31 176.65, 50.29 147.62, 88.02 105.35 M0.63 211.7 C35 176.01, 69.69 135.38, 87.1 112.45 M1.35 211.78 C21.3 190.66, 38.8 168.11, 88.13 111.38 M8.06 211.71 C39.54 173.76, 72.74 138.86, 89.34 120.09 M7.1 211.18 C28.63 185.87, 48.86 161.3, 87.99 117.86 M11.08 211.89 C37.4 182.89, 61.96 150.78, 88.05 124.35 M12.37 211.66 C40.11 177.47, 68.5 145.18, 88.95 123.66 M18.15 209.73 C44.42 181.36, 73.22 148.14, 86.24 130.99 M17.59 211.66 C39.48 184.92, 60.81 161.59, 87.1 131.21 M23.97 209.83 C49.39 180.83, 76.68 153.28, 89.81 137.47 M22.78 210.44 C42.92 187.01, 64.31 162.17, 88.73 135.4 M27.06 211.52 C43.72 191.61, 58.7 175.51, 86.59 144.63 M29.64 210.23 C48.56 188.5, 68.51 166.37, 87.87 141.81 M32.92 212.45 C53.78 186.77, 71.86 165.16, 87.34 149 M33.12 210.42 C53.82 188.41, 73.26 164.5, 87.67 149.62 M39.65 212.27 C59.71 189.75, 75.98 169.35, 88.19 154.73 M39.46 209.78 C58.69 189.4, 78.18 167.12, 87.28 154.05 M45.03 212.22 C57.57 194.51, 72.57 179.51, 89 161.44 M43.76 210.6 C57.81 195.5, 70.64 180.25, 88.68 160.81 M48.2 210.75 C59.87 202.08, 66.14 188.75, 86.33 168.58 M50.04 210.92 C64.91 194.84, 77.43 180.32, 88.08 167.02 M56.78 211.17 C62.34 204.53, 67.9 195.99, 88.6 175.1 M54.81 210.7 C67.19 195.65, 80.02 182.51, 87.49 173.42 M60.46 209.26 C70.23 203.49, 74.44 192.65, 89.03 179.78 M61.14 209.99 C66.6 203.31, 72.31 195.99, 88.14 179.29 M66.14 208.9 C71.97 202.66, 83.1 192.57, 88.06 185.12 M66.2 211.16 C72.38 202.77, 79.71 193.63, 87.29 184.89 M70.93 210.44 C72.89 206.46, 78.71 202.1, 87.75 193.24 M70.66 211.8 C76.51 203.31, 83.39 196.07, 87.1 191.9 M76.48 210.6 C81.61 207, 84.39 200.56, 88.69 198.1 M75.68 211.12 C80.23 206.56, 84.39 201.31, 88.04 196.45 M80.46 210.72 C83.54 209.41, 85.25 207.04, 88.68 202.67 M81.32 210.91 C82.67 209.51, 83.83 207.56, 88.17 203.26" stroke="#0055a4" stroke-width="0.5" fill="none"></path><path d="M-0.61 1.71 C29.82 1.57, 57.92 -0.03, 83.43 1.11 M0.26 -0.26 C18.04 0.07, 34.92 1.37, 84.88 -0.85 M85.45 0.9 C86.9 66.38, 86.68 136.41, 83.92 209.58 M85.45 -0.83 C82.63 44.63, 83.46 90.44, 85.18 208.91 M85.07 209.47 C61.77 210.26, 38.63 210.37, -0.51 209.9 M85.87 208.83 C62.88 210.16, 42.84 209.63, 0.38 209.39 M0.86 207.9 C0.9 142.65, 0.9 72.55, 0.89 -0.53 M0.86 209.23 C-0.62 146.06, -0.81 85.38, -0.75 -0.02" stroke="#0055a4" stroke-width="1" fill="none"></path></g><g stroke-linecap="round" transform="translate(181.22708169985242 10) rotate(0 42.5 104.50000000000003)"><path d="M0 0 C0 0, 0 0, 0 0 M0 0 C0 0, 0 0, 0 0 M0.24 6.43 C1.28 4, 2.78 1.52, 4.82 0.01 M-0.28 6.55 C1.58 5.08, 2.25 3.36, 4.91 0.58 M0.18 11.99 C4.34 8.12, 6.68 4.45, 9.31 -1 M0.74 12.25 C4.13 8.31, 7.48 4.73, 11.23 -0.72 M-0.07 16.88 C5.31 12.7, 10.09 8.72, 15.5 -0.72 M0.04 18.12 C5.03 12.74, 8.13 7.15, 15.35 -0.55 M1.84 25.85 C5.62 18.03, 9.74 13.06, 22.08 -0.09 M0.49 25.05 C7.84 13.69, 16.35 4.78, 20.44 0.6 M-0.88 32.45 C7.04 22.05, 10.93 15.79, 24.97 -0.25 M0.66 30.68 C9.65 18.77, 18.98 6.71, 27.19 1.26 M-1.2 38.16 C7.09 28.83, 15.85 18.52, 33.45 0.48 M-1.1 36.89 C10.97 25.82, 20.79 13.76, 32.36 -1.02 M1.38 43.08 C9.15 33.88, 17.22 23.6, 38.32 0.76 M-0.37 42.91 C14.4 26.36, 28.04 11.63, 35.88 1.03 M0.49 48.51 C12.88 32.15, 27.76 18.71, 42.71 -1.44 M-0.38 48.42 C15.83 29.25, 31.92 11.77, 42.3 -0.89 M1.1 56.09 C15.71 35.21, 31.44 17.75, 46.48 1.6 M0.75 55.04 C11.64 41.21, 22.57 28.59, 47.7 0.25 M-0.09 62.19 C13.57 44.68, 30.9 26, 53.07 1.66 M0.92 61.23 C16.16 42.85, 33.87 23.88, 53.15 -0.41 M-0.44 69 C15.1 52.91, 25.7 36.81, 57.9 1 M-1.12 67.81 C18.57 44.8, 39.16 22.26, 57.65 -0.81 M0.28 71.18 C20.73 49.04, 45.3 22.76, 63.26 -1.28 M0.41 72.99 C21.78 48.58, 43.59 22.53, 63.54 -1.15 M-0.43 78.49 C23.04 53.96, 47.25 26.64, 70.64 1.13 M0.58 79.5 C15.71 60.63, 33.3 42.03, 69.46 0.91 M-1.6 86.9 C18.87 65.57, 37.85 42.78, 75.62 0.12 M0.46 84.11 C13.72 68.64, 29.23 50.81, 73.79 -0.93 M1.56 92.97 C25.94 63.89, 47.51 32.25, 80.28 -0.42 M0.14 92.44 C20.93 68.12, 41.8 44.73, 79.58 -0.78 M-0.05 96.96 C28.63 66.3, 55.94 33.38, 84.02 1.7 M-0.53 98.54 C20.67 71.78, 42.88 45.24, 85.97 0.22 M-1.85 101.49 C26.57 72.07, 51.83 44.75, 90.02 3.67 M0.25 103.96 C25.54 75.01, 52.82 45.42, 87.19 3.01 M-1.85 110.15 C22.37 82, 47.88 54.8, 86.03 9.77 M0.53 110.78 C34.53 71.18, 67.95 32.21, 87.96 9.12 M1.53 114.58 C25.59 85.99, 53.01 57.12, 88.02 13.43 M-0.69 115.2 C17.78 93.71, 35.71 72.55, 87.62 15.21 M1.83 120.94 C28.63 86.28, 58.79 49.82, 87.91 20.98 M-0.49 122.34 C26.8 89.66, 56.34 56.7, 88.51 21.25 M-1.2 128.93 C16.7 105.38, 35.86 88.61, 86.44 27.7 M-1.24 127.81 C23.02 101.51, 47.45 73.33, 87.34 26.95 M2.03 134.5 C19.11 114.1, 35.66 92.22, 88.84 32.46 M-0.38 134.77 C25.71 106.53, 49.69 76.83, 87.44 32.92 M-1.4 140.42 C31.27 104.09, 63.7 69.97, 88.44 40.35 M-0.23 140.99 C27.16 107.27, 55.23 74.74, 86.98 39.67 M-0.67 147.43 C22.32 118.85, 43.29 95.11, 88.96 45.78 M0.81 146.4 C34.08 106.21, 67.83 67.96, 87.7 45.21 M-0.87 152.63 C35.37 110.75, 72.52 70.36, 88.79 50.91 M-0.79 151.95 C31.83 115.42, 64.64 78.38, 87.91 51.86 M-0.76 160.55 C26.68 128.3, 49.2 99.51, 87.3 56.71 M-0.92 159.1 C33.81 121.9, 68.35 81.8, 87.25 57.78 M-1.14 165.82 C20.5 144.47, 37.63 119.9, 88.44 61.62 M0.37 164.94 C35.38 124.46, 71.05 85.07, 88.9 64.04 M-1.19 171.8 C23.48 142.87, 44.82 115.72, 88.42 68.18 M-0.88 171.25 C29.15 137.36, 58.67 101.48, 87.79 69.75 M-0.22 177.68 C31.95 136.56, 65.25 99.01, 89.94 74.14 M0.23 176.01 C34.24 138.94, 68.98 98.93, 87.42 75.51 M-1.34 184.88 C26.92 149.66, 53.66 121.31, 86.5 82.84 M0.38 182.28 C35.36 142.2, 71.06 103.06, 88.74 82.33 M-1.2 188.12 C26.02 156.89, 55.34 122.7, 88.72 86.33 M-1.16 189.72 C22.24 162.23, 45.44 136.1, 87 89.11 M1.63 194.12 C29.59 161.9, 59.55 129.08, 87.92 92 M-0.32 195.65 C31.95 157.57, 62.77 121.7, 87.9 93.74 M-1.64 200.18 C32.37 164.54, 63.97 125.09, 87.78 101.22 M-0.04 202.16 C34.49 163.3, 66.98 125.08, 87.87 100.18 M0.15 205.32 C34.94 168.74, 70.29 128.35, 86.6 104.43 M0.55 207.59 C26.94 174.93, 55 143.78, 88.8 105.97 M0.48 210.38 C28.39 180.4, 53.85 150.13, 89.66 111.55 M1.02 211.19 C21.31 188.85, 39.64 164.72, 87 113.12 M7.39 211.42 C38.56 177.65, 64.98 147.02, 87.4 119.08 M8.46 210.82 C25.13 191.5, 42.24 170.75, 88.01 119.58 M11.96 210.61 C40.55 176.23, 69.93 145.65, 87.15 124.74 M12.46 210.43 C34.62 187.85, 54.28 162.23, 88.75 124.37 M18.97 209.59 C33.22 192.18, 48.09 173.57, 88.71 130.08 M18.46 209.67 C41.22 183.09, 67.06 154.74, 87.8 130.61 M24.09 211.58 C43.02 187.05, 64.29 161.14, 86.61 135.63 M23.34 210.62 C35.61 195.47, 50.43 179.59, 88.17 137.11 M28.69 211.74 C50.12 183.64, 73.52 158.07, 86.49 143.26 M28.94 210.49 C52.18 184.42, 74.71 156.7, 88.21 143.17 M32.26 211.6 C51.88 190.53, 70.59 167.95, 87.3 147.28 M32.95 210.5 C47.73 195.85, 61.17 179.98, 88.41 148.11 M39.23 209.38 C49.54 198.19, 58.97 184.85, 88.94 153.12 M40.34 210.64 C57.71 188.03, 76.5 166.51, 87.62 154.38 M43.4 210.43 C56.91 196.01, 72.08 180.54, 87.98 159.91 M44.32 210.56 C53.49 200.36, 63.66 191.08, 87.27 160.61 M50.8 209.52 C58.2 198.93, 69.96 191.04, 87.81 167.61 M49.77 210.27 C64.7 193.56, 78.81 176.8, 88.15 167.15 M56.03 209.28 C65.37 196.19, 77.16 183.06, 87.06 171.43 M54.18 211.08 C64.25 200.04, 74.66 188.47, 87.33 172.91 M61.18 210.55 C69.51 197.5, 80.77 186.27, 85.77 180.88 M61.09 210.3 C71.28 199.2, 79.33 189.69, 86.98 178.92 M64.2 210.77 C71.59 204.28, 78.12 193.28, 89.11 186.46 M65 210.14 C71.39 203.1, 78.56 197.96, 88.53 185.36 M69.08 211.09 C74.09 205.99, 77.93 201.39, 87 190.24 M70.21 211.19 C76.99 204.72, 82.15 199.32, 86.97 190.67 M77.44 210.98 C79.65 207.3, 82.02 204.18, 88.31 197.05 M76.9 211.5 C80.26 207.29, 82.8 203.71, 87.6 197.08 M81.06 211.07 C83.65 208.76, 87.21 205.83, 88.63 204.19 M81.56 211.57 C83.07 209.14, 84.45 207.9, 88.35 203.52" stroke="#ef4135" stroke-width="0.5" fill="none"></path><path d="M1.8 1.09 C18.56 1.47, 36.52 -0.98, 86.69 0.66 M0 -0.81 C22.03 -0.27, 45.46 0.74, 85.51 0.15 M84.11 -1.3 C85.4 77.72, 86.47 159.03, 85.89 208.38 M85.49 0.56 C85.56 75.07, 85.07 149.97, 84.18 209.22 M85.36 207.11 C59.72 207.16, 33.06 210.27, -0.49 210.62 M84.04 208.51 C64.56 208.17, 44.82 208.18, 0.29 209.27 M-0.47 207.63 C-0.45 163.35, -2.14 119.39, -1.75 -0.38 M-0.33 208.7 C0.21 143.38, 1.06 76.82, 0.25 -0.62" stroke="#ef4135" stroke-width="1" fill="none"></path></g></svg>